HIERARCHY
ROOT RootJoint
{
    OFFSET   0.000000   0.000000   0.000000
    CHANNELS 6 Xposition Yposition Zposition Xrotation Yrotation Zrotation
    JOINT pelvis_lowerback
    {
        OFFSET   0.000000   0.093605   0.000000
        CHANNELS 3 Xrotation Yrotation Zrotation
        JOINT lowerback_torso
        {
            OFFSET   0.000000   0.100000   0.000000
            CHANNELS 3 Xrotation Yrotation Zrotation
            JOINT torso_head
            {
                OFFSET   0.000000   0.282350   0.000000
                CHANNELS 3 Xrotation Yrotation Zrotation
                End Site
                {
                    OFFSET   0.000000   0.192650   0.000000
                }
            }
            JOINT rTorso_Clavicle
            {
                OFFSET  -0.001000   0.157500   0.000000
                CHANNELS 3 Xrotation Yrotation Zrotation
                JOINT rShoulder
                {
                    OFFSET  -0.117647   0.000000   0.000000
                    CHANNELS 3 Xrotation Yrotation Zrotation
                    JOINT rElbow
                    {
                        OFFSET  -0.245000   0.000000   0.000000
                        CHANNELS 3 Xrotation Yrotation Zrotation
                        JOINT rWrist
                        {
                            OFFSET  -0.240000   0.000000   0.000000
                            CHANNELS 3 Xrotation Yrotation Zrotation
                            End Site
                            {
                                OFFSET  -0.116353  -0.002500   0.000000
                            }
                        }
                    }
                }
            }
            JOINT lTorso_Clavicle
            {
                OFFSET   0.001000   0.157500   0.000000
                CHANNELS 3 Xrotation Yrotation Zrotation
                JOINT lShoulder
                {
                    OFFSET   0.117647   0.000000   0.000000
                    CHANNELS 3 Xrotation Yrotation Zrotation
                    JOINT lElbow
                    {
                        OFFSET   0.245000   0.000000   0.000000
                        CHANNELS 3 Xrotation Yrotation Zrotation
                        JOINT lWrist
                        {
                            OFFSET   0.240000   0.000000   0.000000
                            CHANNELS 3 Xrotation Yrotation Zrotation
                            End Site
                            {
                                OFFSET   0.116353  -0.002500   0.000000
                            }
                        }
                    }
                }
            }
        }
    }
    JOINT rHip
    {
        OFFSET  -0.100000  -0.051395   0.000000
        CHANNELS 3 Xrotation Yrotation Zrotation
        JOINT rKnee
        {
            OFFSET   0.000000  -0.410000   0.000000
            CHANNELS 3 Xrotation Yrotation Zrotation
            JOINT rAnkle
            {
                OFFSET   0.000000  -0.390000   0.000000
                CHANNELS 3 Xrotation Yrotation Zrotation
                JOINT rToeJoint
                {
                    OFFSET   0.000000  -0.050000   0.130000
                    CHANNELS 3 Xrotation Yrotation Zrotation
                    End Site
                    {
                        OFFSET  -0.010000   0.002000   0.060000
                    }
                }
            }
        }
    }
    JOINT lHip
    {
        OFFSET   0.100000  -0.051395   0.000000
        CHANNELS 3 Xrotation Yrotation Zrotation
        JOINT lKnee
        {
            OFFSET   0.000000  -0.410000   0.000000
            CHANNELS 3 Xrotation Yrotation Zrotation
            JOINT lAnkle
            {
                OFFSET   0.000000  -0.390000   0.000000
                CHANNELS 3 Xrotation Yrotation Zrotation
                JOINT lToeJoint
                {
                    OFFSET   0.000000  -0.050000   0.130000
                    CHANNELS 3 Xrotation Yrotation Zrotation
                    End Site
                    {
                        OFFSET   0.010000   0.002000   0.060000
                    }
                }
            }
        }
    }
}
MOTION
Frames: 11
Frame Time:   0.008333
 -2.376719   0.925631   3.975860   0.000000   0.000000   0.000000   0.000000   0.000000   0.000000   0.000000   0.000000   0.000000   0.000000   0.000000   0.000000   0.000000   0.000000   0.000000   0.000000   0.000000   0.000000   0.000000   0.000000   0.000000   0.000000   0.000000   0.000000   0.000000   0.000000   0.000000   0.000000   0.000000   0.000000   0.000000   0.000000   0.000000   0.000000   0.000000   0.000000   0.000000   0.000000   0.000000   0.000000   0.000000   0.000000   0.000000   0.000000   0.000000   0.000000   0.000000   0.000000   0.000000   0.000000   0.000000   0.000000   0.000000   0.000000   0.000000   0.000000   0.000000   0.000000   0.000000   0.000000
 -2.376824   0.925546   3.976757   0.136679   0.056956  -0.119886   0.044973  -0.049367   0.045472  -0.173617  -0.067454   0.086196   0.049682   0.016512   0.075023  -0.099330  -0.900503  -0.598019  -0.937924  -0.207892   2.492339   0.012812   0.775166   0.007021  -0.298380   0.933823  -2.523967   0.056352   0.886332   0.643447  -1.303695   0.622122  -2.378941   0.018992  -1.275078  -0.013903  -0.233141  -0.886118   2.355925  -0.266547  -0.124564   0.081085   0.874935   0.000290  -0.000515   0.511175  -0.233628   0.409871  -0.547884   0.001758   0.001469  -0.312375   0.046203   0.201864   0.742458  -0.000528   0.000677   2.463048   0.298912  -0.083487  -0.733680   0.000044  -0.002605
 -2.376824   0.927541   3.977864   0.315874   0.145514   0.024972   0.080705  -0.110497  -0.128524  -0.356372  -0.141004   0.095913   0.138046   0.029734   0.144532  -0.211117  -2.100592  -0.556196  -1.846177  -0.722278   5.439977   0.027129   1.439055   0.011924  -0.579226   1.881748  -4.502583   0.087421   2.079689   0.718683  -2.534850   1.544046  -5.094955   0.040729  -2.412648  -0.023779  -0.453938  -1.867280   4.209859  -0.591831  -0.163582  -0.088644   1.645974   0.000391  -0.000092   0.905579  -0.362761   0.807586  -2.377764   0.007192   0.002848  -0.592246  -0.110663   0.047246   0.878535  -0.000411   0.000461   3.426464   0.366404  -0.087913  -3.060605   0.000074  -0.002074
 -2.376958   0.930451   3.979325   0.435174   0.199998   0.109838   0.109420  -0.147475  -0.220089  -0.513152  -0.192861   0.110685   0.253412   0.042196   0.204764  -0.308552  -3.447555  -0.193157  -2.698686  -1.471139   8.633844   0.038508   1.994165   0.015397  -0.848912   2.499884  -5.824457   0.120110   3.435757   0.424240  -3.624949   2.645515  -7.896392   0.057987  -3.404401  -0.030458  -0.667744  -2.501319   5.374914  -0.823068  -0.231005  -0.166883   2.482306   0.000249  -0.000181   1.342235  -0.519714   1.178334  -3.110533   0.008024   0.003710  -0.893014  -0.247435  -0.032708   1.149032  -0.000346   0.000173   4.817630   0.444415  -0.131899  -5.940571  -0.000341  -0.001651
 -2.377220   0.933713   3.981161   0.502391   0.276751   0.127388   0.092626  -0.187215  -0.246741  -0.668974  -0.242711   0.150117   0.382962   0.053584   0.264350  -0.378906  -4.871080   0.345205  -3.481311  -2.405972  11.965383   0.046215   2.461900   0.017977  -1.129261   2.808830  -6.708216   0.166331   4.866476  -0.078035  -4.572562   3.855028 -10.662436   0.069485  -4.277355  -0.035250  -0.893503  -2.808322   6.078996  -0.926207  -0.328956  -0.185336   3.349194   0.000183  -0.000312   1.780385  -0.695330   1.519264  -3.414990   0.007234   0.003677  -1.190372  -0.280203  -0.063239   1.539362  -0.000237   0.000288   6.333424   0.620490  -0.152029  -9.026488   0.000061  -0.007337
 -2.377597   0.937028   3.983267   0.532873   0.340903   0.098106   0.018276  -0.215783  -0.234907  -0.843565  -0.283930   0.216610   0.514237   0.064831   0.320894  -0.415072  -6.323134   1.000164  -4.166351  -3.459955  15.304154   0.050482   2.859051   0.019747  -1.427039   2.872306  -7.288004   0.232834   6.325965  -0.687289  -5.384276   5.126829 -13.326400   0.075698  -5.051353  -0.038658  -1.135834  -2.862188   6.511477  -0.927994  -0.437603  -0.186905   4.217639   0.000346  -0.000600   2.198532  -0.874201   1.833464  -3.601341   0.006182   0.003434  -1.466748  -0.276975  -0.039663   1.988031  -0.000168   0.000497   7.856252   0.812710  -0.193231 -12.081795   0.000856  -0.012941
 -2.378042   0.940228   3.985512   0.533206   0.380555   0.041572  -0.108886  -0.234789  -0.196227  -1.041778  -0.317188   0.312083   0.640038   0.075946   0.370752  -0.413829  -7.771317   1.747469  -4.728578  -4.556381  18.506287   0.051847   3.198293   0.020682  -1.740992   2.745421  -7.634656   0.323035   7.781685  -1.346381  -6.070551   6.425373 -15.857646   0.077682  -5.742297  -0.040870  -1.392315  -2.729114   6.792214  -0.857942  -0.540587  -0.196471   5.061763   0.000717  -0.000981   2.591018  -1.039266   2.127742  -3.771054   0.005218   0.003212  -1.715957  -0.258722   0.020879   2.463356  -0.000147   0.000646   9.329847   1.002722  -0.255833 -15.011099   0.001846  -0.016915
 -2.378591   0.943750   3.986897   0.657962   0.280445  -0.038250  -0.103870  -0.047456  -0.005817  -1.544332  -0.343737   0.277936   0.733162  -0.073495   0.339048  -0.483006  -9.107808   2.230377  -5.388591  -5.864844  21.243777   0.053023   3.614091   0.023670  -2.094582   2.246553  -7.147676   0.271287   9.407443  -1.491092  -7.401731   7.705162 -18.309533   0.079492  -6.633657  -0.053344  -1.686892  -2.275329   6.589367  -1.318731  -0.717159  -0.139273   7.118237   0.000374  -0.005774   1.735584  -1.176638   2.434705  -3.876203   0.004417   0.003015  -2.055630  -0.259020   0.135360   2.692565  -0.000190   0.000326  11.217616   1.186010  -0.366656 -18.177834   0.002656  -0.016391
 -2.379299   0.947345   3.987919   0.761566   0.237193  -0.161557  -0.097351   0.133964   0.231915  -2.022456  -0.363898   0.256714   0.809907  -0.218886   0.302671  -0.538316 -10.368190   2.494417  -5.955438  -7.120594  23.656877   0.051299   3.996697   0.025225  -2.454392   1.691376  -6.781057   0.215017  10.947569  -1.451011  -8.610336   8.951254 -20.462889   0.075788  -7.472550  -0.062037  -1.996501  -1.863735   6.489775  -1.694300  -0.898435  -0.001475   9.181967  -0.000772  -0.008530   0.937484  -1.310475   2.718880  -4.020286   0.003881   0.002952  -2.416090  -0.269725   0.297624   2.916148  -0.000231   0.000171  13.202707   1.359657  -0.440283 -21.271740   0.004853  -0.016626
 -2.380119   0.950829   3.988599   0.846120   0.148842  -0.312014  -0.095099   0.346205   0.488872  -2.460905  -0.348607   0.255745   0.875599  -0.353536   0.271769  -0.588834 -11.529364   2.598988  -6.449284  -8.296430  25.803810   0.048165   4.358946   0.025810  -2.797626   1.178154  -6.610104   0.162037  12.399028  -1.279442  -9.705649  10.154328 -22.357364   0.068960  -8.255827  -0.067252  -2.295939  -1.487459   6.567451  -1.981591  -1.065859   0.183833  11.150105  -0.002249  -0.010918   0.195030  -1.437655   2.983037  -4.151662   0.003425   0.002880  -2.792906  -0.327025   0.522339   3.151910  -0.000348  -0.000134  15.208161   1.440641  -0.606768 -24.415664   0.004400  -0.012882
 -2.380995   0.954185   3.988961   0.926529   0.039620  -0.466061  -0.102522   0.569181   0.745548  -2.866267  -0.309040   0.266407   0.932564  -0.478943   0.245344  -0.639977 -12.592148   2.595057  -6.884510  -9.388568  27.731152   0.044411   4.705390   0.025699  -3.121388   0.736315  -6.597735   0.108542  13.757895  -1.019535 -10.703402  11.302385 -24.035157   0.060794  -8.989434  -0.069748  -2.583675  -1.152547   6.796645  -2.195110  -1.225304   0.380299  13.004465  -0.003660  -0.012665  -0.496981  -1.559516   3.228173  -4.272795   0.003024   0.002790  -3.168944  -0.366586   0.754002   3.436254  -0.000482  -0.000434  17.162986   1.522814  -0.775151 -27.504693   0.004127  -0.010132
